<svg xmlns="http://www.w3.org/2000/svg" viewBox="0 0 100 100">
<!-- SVG created with Arrow, by QuiverAI (https://quiver.ai) -->
  <style type="text/css">.cls-0 {fill:#070505;}
.cls-1 {fill:#FFFFFF;stroke:#070505;stroke-width:0.5;stroke-miterlimit:10;}
.cls-2 {fill:#070404;}</style>
  <circle class="cls-1" cx="49.8" cy="50.8" r="44.5"/>
  <path class="cls-0" d="m49 51.9-13.6-22.7h-18.7l28.1 47.2 4-6.4-17.8-29.2h3.4l10.7 17.2 3.6-6 0.3-0.1z"/>
  <path class="cls-2" d="m65.1 29.3-18.9 30.3 4.1 6.7 18.8-29.6h9.5l4.3-7.4h-17.8z"/>
  <path class="cls-2" d="m73.7 39.8c-2.6 0.5-3.7 3.8-2.2 5.6l-20.3 32.7c-2.5-1-4.9 1.4-4.6 3.5 0.4 3.7 6.3 4.5 6.9 0.3 0.1-0.8 0-1.7-0.5-2.3l20.6-33.2c4.9 0.8 5.1-7 0.1-6.6zm-23.5 42.9c-0.8 0-1.7-0.8-1.7-1.7 0.3-2.1 3.2-2.1 3.2 0.1-0.2 0.8-0.8 1.5-1.5 1.6zm23.7-38.1c-1.7-0.3-1.9-3 0.2-2.9 1.8 0.2 1.7 2.8-0.2 2.9z"/>
  <path d="m73.4 43.1c0 0.8 1.1 1.1 1.1 0.2 0.1-0.8-1-0.9-1.1-0.2z" fill="#fff"/>
</svg>