<svg xmlns="http://www.w3.org/2000/svg" viewBox="0 0 131 115">
<!-- SVG created with Arrow, by QuiverAI (https://quiver.ai) -->
  <style type="text/css">.cls-0 {fill:#020202;}
.cls-1 {fill:#F7F6F6;}
.cls-2 {fill:#FFFFFF;}</style>
  <rect class="cls-0" x="-.1" width="131" height="114.9"/>
  <path class="cls-1" d="m106.5 27.7c-3.1 0-5.7 2.5-5.8 5.3 0 1.3 0.4 2.3 1.1 3.6l-35.3 57.4c-0.7-0.2-1.4-0.3-2.2-0.3-3.3 0-6.4 2.4-6.4 6 0 3.7 2.8 6.5 6.2 6.5 3.3 0.1 6.1-2.5 6.1-5.8 0-1.4-0.4-2.6-1-3.9l36-57.6c0.3 0.1 0.8 0.1 1.3 0.1 3.1 0 5.9-2.3 5.9-5.7 0.1-3-2.3-5.6-5.9-5.6zm-42.4 75.4c-1.5 0-3-1.3-3-3.1s1.4-3.2 3-3.2c1.5 0 2.8 1.3 2.8 2.8 0 1.9-1.3 3.5-2.8 3.5zm42.4-67.2c-1.3 0-2.8-0.8-2.8-2.7 0-1.3 1-2.8 2.8-2.8 1.3 0 2.8 1.3 2.8 2.8 0 1.6-1.2 2.7-2.8 2.7z"/>
  <path class="cls-2" d="m28.8 29.5h6.8l18.8 30.2 6.2-9.7-25-40.9h-31.9l49.8 82.4 7-11.6-31.7-50.4z"/>
  <path class="cls-2" d="m91.1 9-33.9 55.4 6.9 10.4 33.8-52.6h18.2l7.3-13.2h-32.3z"/>
  <path class="cls-1" d="m91.8 10.7-32.6 53.6 4.9 7.6 34.5-50.5h16.7l5.7-10.7h-29.2z"/>
  <path class="cls-1" d="m5.5 10.3 48 77.7 5.5-8.1-32.2-52h9.3l18.4 29.4 4.8-7.3-24.1-39.7h-29.7z"/>
</svg>