<svg xmlns="http://www.w3.org/2000/svg" viewBox="0 0 120 103">
<!-- SVG created with Arrow, by QuiverAI (https://quiver.ai) -->
  <style type="text/css">.cls-0 {fill:#040302;}
.cls-1 {fill:url(#SVGID_1_);}</style>
  <rect width="120" height="103"/>
  <rect class="cls-0" x="2" y="3.3" width="115.6" height="96.4"/>
  <linearGradient id="SVGID_1_" x1="5.266" x2="59.45" y1="10.81" y2="79.21" gradientUnits="userSpaceOnUse">
    <stop stop-color="#FF8100" offset="0"/>
    <stop stop-color="#FF6900" offset=".4725"/>
    <stop stop-color="#FF5300" offset=".8168"/>
  </linearGradient>
  <path class="cls-1" d="m2 4.1 49.3 81.6 5.9-9.9-32-52 6.4-0.1 19.9 32.5 5.6-9.2-26.1-42.9h-29z"/>
  <linearGradient id="SVGID_00000071538680847199918460000000634587221665402717_" x1="54.33" x2="117.4" y1="43.06" y2="43.06" gradientUnits="userSpaceOnUse">
    <stop stop-color="#FF5300" offset="0"/>
    <stop stop-color="#FF8100" offset="1"/>
  </linearGradient>
  <path d="m117.4 4h-28.5l-34.6 56.2 6.4 9.9 33.5-53.5h16.2l7-12.6z" fill="url(#SVGID_00000071538680847199918460000000634587221665402717_)"/>
  <linearGradient id="SVGID_00000021096055690063239840000013628659181424021671_" x1="55.09" x2="107.2" y1="55.11" y2="55.11" gradientUnits="userSpaceOnUse">
    <stop stop-color="#FF5300" offset="0"/>
    <stop stop-color="#FF8100" offset="1"/>
  </linearGradient>
  <path d="m102.1 22.2c-4.1-0.2-5.7 3.3-5.3 5.5 0.1 0.9 0.8 2.3 0.8 2.3l-35.4 58.3c-2.4-1.1-6.3 0.9-7 4-0.4 1.6 0.8 4.4 1.9 5.1 1.7 1.4 4.1 2.1 6.7 0.9 1.5-0.7 2.3-3 1.9-5.8l-0.5-1.7 35.8-59c6.5 0.8 7.5-5.9 4.8-8.3-0.8-0.7-1.8-1.2-3.7-1.3zm-41.6 74.1c-1.4 0-2.7-1.2-2.7-2.6s1.3-2.7 2.7-2.7 2.5 1.1 2.5 2.6-1.1 2.7-2.5 2.7zm41.6-67c-1.1 0.3-2.7-0.8-2.8-2-0.1-0.9 0.7-2.4 2.1-2.7 1.2-0.1 2.9 0.6 3.1 2.3 0.1 1-0.9 2.2-2.4 2.4z" fill="url(#SVGID_00000021096055690063239840000013628659181424021671_)"/>
</svg>