<svg xmlns="http://www.w3.org/2000/svg" viewBox="0 0 150 107">
<!-- SVG created with Arrow, by QuiverAI (https://quiver.ai) -->
  <style type="text/css">.cls-0 {fill:#050404;}
.cls-1 {fill:#F5F5F5;}
.cls-2 {fill:#FF6600;}
.cls-3 {fill:url(#SVGID_1_);}</style>
  <rect class="cls-0" width="150" height="107.3"/>
  <path class="cls-1" d="m12.1 87.5-10.1-18.1h3.3l8.3 14.1 8.6-14.1h3.6l-11.5 18.1h-2.2z"/>
  <path class="cls-1" d="m35.5 72.1v-2.7h18.9l-1.7 0.1 1.4 0.5-1.5 2.1h-17.1zm0 7.6v-2.7h17.5v1.2l-1.1 1.5h-16.4zm0 7.8v-2.7h18.8l-0.1 0.6-1.3 2.1h-17.4z"/>
  <path class="cls-1" d="m71.9 77.4-8.8-7.9h4.1l6.8 6.2-2.1 1.7zm10.2 10.1-6.9-6.7 2.1-2.1 9.2 8.8h-4.4z"/>
  <path class="cls-1" d="m98.9 87.5c-2-0.2-4.5-1.7-4.6-4.8v-8.7c0.4-2.6 2.5-4.5 4.9-4.5h10.5c2.9 0 5.3 1.7 5.3 4.5v9c-0.1 2.6-1.9 4.5-4.6 4.5h-11.5zm13.5-13.5c-0.2-1.2-1-1.8-2.5-1.9h-10.6c-1.2 0.2-2.2 1-2.3 2v8.6c0.3 1.2 1.1 2 2.2 2.1h10.8c1.4 0 2.3-0.8 2.4-1.9v-8.9z"/>
  <path class="cls-1" d="m141.1 87.5-6-6-0.1-0.8h-6.9v6.8h-3.1v-9.8h13.8c2 0 2.6-1 2.6-2.9s-0.8-2.6-2.2-2.7h-12.9l-2-2.6h14.7c2.3 0.1 4.9 1.5 4.9 3.8v3.1c-0.2 2.7-2.7 4.3-5 4.3h-0.1l5.8 6.8h-3.5z"/>
  <path class="cls-2" d="m63.4 87.5 18.4-18h4.4l-18.7 18h-4.1z"/>
  <linearGradient id="SVGID_1_" x1="50.31" x2="65.37" y1="7.139" y2="52.58" gradientUnits="userSpaceOnUse">
    <stop stop-color="#FF8300" offset="0"/>
    <stop stop-color="#FF7800" offset=".5108"/>
    <stop stop-color="#FF5000" offset="1"/>
  </linearGradient>
  <path class="cls-3" d="m56.7 6.7h-19.2l30.4 47.9 3.8-6.3-18.9-29.8h4.2l10.9 17.1 0.3 0.9 3.5-6-15-23.8z"/>
  <linearGradient id="SVGID_00000114049707565480315400000001368552646878907028_" x1="69.82" x2="109.3" y1="24.78" y2="24.78" gradientUnits="userSpaceOnUse">
    <stop stop-color="#FF7800" offset="0"/>
    <stop stop-color="#FF8300" offset="1"/>
  </linearGradient>
  <path d="m90.1 6.7-20 32.1 3.9 6.3 20-30.8h10.6l4.7-7.6h-19.2z" fill="url(#SVGID_00000114049707565480315400000001368552646878907028_)"/>
  <linearGradient id="SVGID_00000025440560897559178730000003649497978119062271_" x1="70.48" x2="102.5" y1="37.92" y2="37.92" gradientUnits="userSpaceOnUse">
    <stop stop-color="#f60" offset="0"/>
    <stop stop-color="#FF7800" offset="1"/>
  </linearGradient>
  <path d="m99.3 17.8c-1.8 0-3.6 2-3.4 3.9l0.4 1.3-21 33.3c-2.4-1-4.8 1.5-4.8 2.9-0.2 2.5 1.6 3.9 3.6 3.9 2.8 0 3.8-2 3.1-5.1l21-33.8h1.1c1.5 0 3.2-1.3 3.2-2.8 0.2-1.9-1.4-3.6-3.2-3.6zm-25.2 43.7c-0.9 0-1.8-0.8-1.8-1.7s0.9-1.8 1.8-1.8 1.7 1.1 1.7 1.8c0 0.9-0.9 1.7-1.7 1.7zm25.1-38.9c-0.8 0-1.5-0.6-1.5-1.4s0.7-1.6 1.5-1.6 1.8 0.7 1.8 1.5-1 1.5-1.8 1.5z" fill="url(#SVGID_00000025440560897559178730000003649497978119062271_)"/>
  <path class="cls-1" d="m8.7 96.4 1.3 4.5h-1l-0.3-0.8h-1.6l-0.4 0.8h-0.8l1.6-4.5h1.2zm-1.3 2.8h1.2l-0.6-1.7-0.6 1.7z"/>
  <path class="cls-1" d="m12.5 99.6h0.9c0.2 0.4 0.5 0.5 0.8 0.5h0.5c0.6 0 0.8-0.2 0.8-0.6s-0.4-0.5-0.7-0.6h-0.9c-0.9-0.1-1.3-0.6-1.3-1.3s0.4-1.2 1.3-1.2h0.9c0.7 0 1.4 0.4 1.4 1.2h-0.8c-0.1-0.3-0.3-0.4-0.6-0.4h-0.8c-0.4 0-0.6 0.2-0.6 0.5 0 0.4 0.3 0.5 0.6 0.5l1 0.1c0.9 0 1.2 0.6 1.2 1.4 0 0.7-0.5 1.3-1.3 1.3h-1.2c-0.8 0-1.2-0.5-1.2-1.4z"/>
  <path class="cls-1" d="m19 99.6h0.8c0.2 0.4 0.5 0.5 0.9 0.5h0.4c0.6 0 0.9-0.2 0.9-0.6s-0.4-0.5-0.7-0.6h-0.9c-0.9-0.1-1.3-0.6-1.3-1.3s0.4-1.2 1.3-1.2h0.9c0.8 0 1.5 0.4 1.5 1.2h-0.8c-0.2-0.3-0.4-0.4-0.7-0.4h-0.7c-0.4 0-0.7 0.2-0.7 0.5 0 0.4 0.4 0.5 0.6 0.5l1 0.1c0.9 0 1.3 0.6 1.3 1.4 0 0.7-0.6 1.3-1.3 1.3h-1.2c-0.8 0-1.3-0.5-1.3-1.4z"/>
  <path class="cls-1" d="m25.8 96.5h0.9v4.4h-0.9v-4.4z"/>
  <path class="cls-1" d="m29.7 99.9v-2.5c0-0.7 0.5-1 1.2-1h1.5c0.6 0 1.2 0.3 1.2 1h-0.8c-0.1-0.2-0.2-0.2-0.4-0.2h-1.4c-0.2 0-0.4 0.1-0.4 0.3v2.3c0 0.2 0.2 0.4 0.4 0.4h1.4c0.2 0 0.4-0.2 0.4-0.4v-0.7h-1.2v-0.7h2.1v1.5c0 0.6-0.5 1.1-1.1 1.1h-1.8c-0.6 0-1.1-0.5-1.1-1.1z"/>
  <path class="cls-1" d="m36.9 96.5h0.9l2 2.9v-2.9h0.8v4.4h-0.8l-2.2-3.3v3.3h-0.7v-4.4z"/>
  <path class="cls-2" d="m43.9 100h1v1h-1v-1z"/>
  <path class="cls-1" d="m52.9 96.5h3.4v0.8h-2.4v1h1.9v0.8h-1.9v1.1h2.4v0.8h-2.8l-0.6-0.3v-4.2z"/>
  <path class="cls-1" d="m60.6 98.6-1.5-2.1h0.9l1.1 1.5 1.1-1.5h1l-1.5 2.1 1.6 2.3h-1l-1.2-1.7-1.2 1.7h-1l1.7-2.3z"/>
  <path class="cls-1" d="m65.9 96.5h3.3v0.8h-2.5v1h2v0.8h-2v1h2.5v0.8h-2.9l-0.4-0.2v-4.2z"/>
  <path class="cls-1" d="m72.1 99.9v-2.5c0-0.6 0.5-1 1.1-1h1.5c0.8 0 1.2 0.5 1.2 1.2h-0.9c0-0.3-0.1-0.4-0.3-0.4h-1.3c-0.2 0-0.4 0.2-0.4 0.4v2.1c0 0.3 0.2 0.4 0.4 0.4h1.3c0.2 0 0.3-0.1 0.3-0.4h0.9c0 0.7-0.4 1.3-1.1 1.3h-1.6c-0.6 0-1.1-0.5-1.1-1.1z"/>
  <path class="cls-1" d="m78.6 99.9v-3.4h0.9v3.2c0 0.3 0.2 0.4 0.4 0.4h1.3c0.2 0 0.4-0.1 0.4-0.4v-3.2h1v3.4c0 0.6-0.5 1.1-1.1 1.1h-1.8c-0.6 0-1.1-0.5-1.1-1.1z"/>
  <path class="cls-1" d="m86.9 97.3h-1.3v-0.8h3.5v0.8h-1.3v3.7h-0.9v-3.7z"/>
  <path class="cls-1" d="m92.2 96.5h3.2v0.8h-2.3v1h2v0.8h-2v1.1h2.4v0.8h-2.8l-0.5-0.3v-4.2z"/>
  <path class="cls-2" d="m98.6 100h1v1h-1v-1z"/>
  <path class="cls-1" d="m107.2 96.5h3c0.7 0 1.2 0.4 1.2 1.1v0.8c0 0.6-0.5 1.1-1.2 1.1h-2v1.5h-1v-4.5zm2.7 2.1c0.3 0 0.6-0.2 0.6-0.5v-0.3c0-0.3-0.2-0.5-0.6-0.5h-1.2l-0.5 0.3v1h1.7z"/>
  <path class="cls-1" d="m114.3 96.5h2.5c0.7 0 1.2 0.5 1.2 1.1v0.7c0 0.5-0.3 0.9-0.8 1.1l1 1.5h-0.9l-1.1-1.6h-1v1.6h-0.9v-4.4zm2.3 2.1c0.3 0 0.6-0.2 0.6-0.5v-0.3c0-0.3-0.3-0.5-0.6-0.5h-1.5v1.3h1.5z"/>
  <path class="cls-1" d="m120.8 99.9v-2.5c0-0.6 0.5-1 1.1-1h1.9c0.7 0 1.3 0.4 1.3 1v2.5c0 0.6-0.6 1.1-1.2 1.1h-2c-0.6 0-1.1-0.5-1.1-1.1zm2.8 0.2c0.2 0 0.4-0.1 0.4-0.4v-2.1c0-0.3-0.1-0.4-0.4-0.4h-1.4c-0.3 0-0.5 0.1-0.5 0.4v2.1c0 0.3 0.2 0.4 0.5 0.4h1.4z"/>
  <path class="cls-1" d="m128 96.4 2.5 4.3-0.2 0.3h-0.4l-1.8-4.6h-0.1zm2.5 4.3 1.7-4.3h-0.8l-1.1 2.9 0.2 1.4z"/>
  <path class="cls-1" d="m135.4 96.5h3.3l-0.2 0.8h-2.2v1h1.9v0.8h-1.9v1h2.4v0.9h-2.8l-0.5-0.3v-4.2z"/>
  <path class="cls-2" d="m141.6 100h0.9v1h-0.9v-1z"/>
</svg>