<svg xmlns="http://www.w3.org/2000/svg" viewBox="0 0 277.7 56.6">
<!-- SVG created with Arrow, by QuiverAI (https://quiver.ai) -->
  <style type="text/css">.cls-0 {fill:#050505;}
.cls-1 {fill:#B3B3B3;}
.cls-2 {fill:url(#SVGID_1_);}
.cls-3 {fill:#F4F4F5;}
.cls-4 {fill:#FF6600;}
.cls-5 {fill:#F4F4F5;stroke:#F4F4F5;stroke-width:0.25;stroke-miterlimit:10;}</style>
  <rect class="cls-0" width="277.7" height="56.2"/>
  <rect class="cls-1" x="74.9" y="2.3" width=".6" height="49.1"/>
  <linearGradient id="SVGID_1_" x1="25.59" x2="25.59" y1="43.48" y2="3.471" gradientUnits="userSpaceOnUse">
    <stop stop-color="#FF5800" offset="0"/>
    <stop stop-color="#f60" offset=".5"/>
    <stop stop-color="#FF8000" offset="1"/>
  </linearGradient>
  <path class="cls-2" d="m2.3 3.5 23.4 40 3.2-5.2-14.9-24.7h3.3l8.8 14.9 2.8-4.9-12.1-20.1h-14.5zm41.3 0-16.4 26.7 3.5 5.2 16-25.5h8.6l3.8-6.4h-15.5z"/>
  <linearGradient id="SVGID_00000063615886561013801800000011832697973609282455_" x1="27.61" x2="53.9" y1="31.84" y2="31.84" gradientUnits="userSpaceOnUse">
    <stop stop-color="#FF5800" offset="0"/>
    <stop stop-color="#FF8000" offset="1"/>
  </linearGradient>
  <path d="m51.2 13c-1.5 0-2.7 1.2-2.7 2.7 0 0.6 0.2 1.1 0.5 1.5l-17 27.8c-0.4-0.1-0.7-0.2-1.1-0.2-1.6 0.2-2.8 1.5-3.1 2.8-0.1 1.7 1.2 3.3 2.9 3.3 1.6 0 3.1-1.2 3.1-2.8 0-0.5-0.2-1.1-0.5-1.5l17.3-28c0.2 0 0.4 0.1 0.6 0.1 1.5 0 2.7-1.2 2.7-2.7 0-1.6-1.2-3-2.7-3zm-20.4 36.4c-0.8 0-1.5-0.6-1.5-1.4s0.7-1.5 1.5-1.5 1.6 0.7 1.6 1.5-0.7 1.4-1.6 1.4zm20.4-32.3c-0.6 0-1.1-0.5-1.1-1.1s0.5-1.3 1.1-1.3 1.2 0.5 1.2 1.3c0 0.6-0.5 1.1-1.2 1.1z" fill="url(#SVGID_00000063615886561013801800000011832697973609282455_)"/>
  <path class="cls-3" d="m109.7 32.9 13.5-21.2h-4.3l-11 16.8-10.8-16.8h-4.4l13.6 21.2h3.4z"/>
  <path class="cls-3" d="m157 24 0.7-1 0.2-0.4v-0.1-0.1l0.5-1.4h-22.6v3h21.2z"/>
  <path class="cls-3" d="m157.2 14.8h0.4l1.3-3.1h-23.2v3.1h21.5z"/>
  <path class="cls-3" d="m135.8 29.7v3.2h21.5l1.5-3.2h-23z"/>
  <path class="cls-3" d="m185.1 19.6-9.2-7.9h-4.8l11.4 10.1 2.6-2.2z"/>
  <path class="cls-4" d="m195.5 13.1-23.8 19.8h5.2l23.9-21.2h-5.2l-0.1 1.4z"/>
  <path class="cls-3" d="m186.6 25.4 8.9 7.5h5.5l-11.5-10-2.9 2.5z"/>
  <path class="cls-3" d="m230.3 11.6h-12.9c-3 0-5.9 2.4-5.9 5.7v9.7c0 3.1 2.6 5.8 5.6 5.8h13.4c3 0 6.1-2 6.1-5.8v-9.6c0-2.9-2.7-5.8-6.3-5.8zm2.9 15c0 1.7-1.3 3.1-3.1 3.1h-12.2c-1.6 0-3.1-1.3-3.1-3v-8.8c0-1.4 1.4-2.9 2.9-2.9h12.6c1.5 0 2.9 1.4 2.9 2.9v8.7z"/>
  <path class="cls-3" d="m265.9 25.2c3.2 0 6-2.5 6-5.4v-2.4c0-2.9-2.6-5.8-5.9-5.8h-17v0.1h0.2-0.2 0.2-0.1-0.1 0.2-0.2 0.1-0.1 0.2-0.2 0.2-0.2 0.2-0.2 0.2-0.2 0.2-0.2 0.2-0.2-0.1 0.1 0.1-0.1 0.1-0.1l2 3.1h14.5c2.1 0 3.2 1.2 3.2 2.7v1.8c0 1.6-1.6 2.5-3.4 2.5h-15.7-0.1 0.1-0.1 0.1-0.1 0.1-0.1 0.1-0.1-0.1 0.1-0.1 0.1-0.1 0.1-0.1 0.1-0.1 0.1-0.1-0.1v11.1h3.8v-7.7h8.1l7.6 7.7h4.2z"/>
  <path class="cls-5" d="m99.1 42.4-2.3 5.2h0.8l0.4-1.2h2.3l0.5 1.2h0.8l-1.9-5.2h-0.6zm-0.8 3.3 1-2.4 0.9 2.4h-1.9z"/>
  <path class="cls-5" d="m108.7 44.6h-2.2v-1.5h2.5v0.7h0.7v-0.2c0-0.9-0.3-1.2-1.1-1.2h-2c-0.8 0-1.1 0.3-1.1 1.2v0.5c0 0.9 0.3 1.2 1.1 1.2h2.3v1.6h-2.6v-0.7h-0.8v0.2c0 0.9 0.3 1.3 1.1 1.3h2.1c0.9 0 1.1-0.4 1.1-1.3v-0.6c0-0.9-0.2-1.2-1.1-1.2z"/>
  <path class="cls-5" d="m117.2 44.6h-2.2v-1.5h2.6v0.7h0.7v-0.2c0-0.9-0.3-1.2-1.1-1.2h-1.9c-0.9 0-1.1 0.3-1.1 1.2v0.5c0 0.9 0.2 1.2 1.1 1.2h2.2v1.6h-2.6v-0.7h-0.7v0.2c0 0.9 0.2 1.3 1.1 1.3h1.9c0.9 0 1.2-0.4 1.2-1.3v-0.6c0-0.9-0.3-1.2-1.2-1.2z"/>
  <path class="cls-5" d="m123.5 42.4h-0.7v5h0.7v-5z"/>
  <path class="cls-5" d="m131.4 42.4h-2.4c-0.7 0-1.2 0.3-1.2 1.2v2.8c0 0.9 0.5 1.3 1.2 1.3h2.4c0.8 0 1.1-0.4 1.1-1.3v-1.8h-2.2v0.7h1.5v1.5h-3.1v-3.7h3.1v0.7h0.7v-0.2c0-0.9-0.4-1.2-1.1-1.2z"/>
  <path class="cls-5" d="m140.5 46.4-2.9-4h-0.8v5h0.7v-4l2.8 4h0.9v-5h-0.7v4z"/>
  <path class="cls-4" d="m146.4 46.3c-0.5 0-0.8 0-0.8 0.5v0.3c0 0.5 0.3 0.5 0.8 0.5 0.3 0 0.3 0 0.3-0.5v-0.3c0-0.4 0-0.5-0.3-0.5z"/>
  <path class="cls-5" d="m157.7 45.2h2.2v-0.6h-2.2v-1.5h3.1v-0.7h-4v5h4v-0.6h-3.1v-1.6z"/>
  <path class="cls-5" d="m169.7 42.4h-0.7l-1.4 1.9-1.5-1.9h-0.8l1.8 2.5-1.8 2.5h0.8l1.5-2 1.4 2h0.8l-1.8-2.5 1.7-2.5z"/>
  <path class="cls-5" d="m175.1 45.2h2.5v-0.6h-2.5v-1.5h3v-0.7h-3.8v5h3.8v-0.6h-3v-1.6z"/>
  <path class="cls-5" d="m186 42.4h-2.1c-0.8 0-1.3 0.4-1.3 1.2v2.8c0 0.9 0.5 1.2 1.3 1.2h2.1c0.8 0 1.2-0.3 1.2-1.2v-0.6h-0.7v1h-3v-3.7h3v0.8h0.7v-0.3c0-0.8-0.4-1.2-1.2-1.2z"/>
  <path class="cls-5" d="m195.6 46.9h-2.9v-4.5h-0.9v4c0 0.9 0.5 1.2 1.4 1.2h1.8c0.9 0 1.4-0.3 1.4-1.2v-4h-0.8v4.5z"/>
  <path class="cls-5" d="m200.8 43.1h1.7v4.5h1v-4.5h1.6v-0.8h-4.3v0.8z"/>
  <path class="cls-5" d="m210.1 45.2h2.5v-0.6h-2.5v-1.5h3.2v-0.7h-4v5.2h4.1v-0.8h-3.3v-1.6z"/>
  <path class="cls-4" d="m218.2 46.3c-0.4 0-0.6 0-0.6 0.5v0.3c0 0.5 0.2 0.5 0.6 0.5s0.6 0 0.6-0.5v-0.3c0-0.4-0.2-0.5-0.6-0.5z"/>
  <path class="cls-5" d="m232.7 43.6c0-0.7-0.3-1.2-1.1-1.2h-3.1v5.2h0.8v-1.9h2.3c0.8 0 1.5-0.4 1.5-1.1l-0.4-1zm-0.8 1.4h-2.6v-1.9h2.9l0.2 1.5-0.5 0.4z"/>
  <path class="cls-5" d="m242.5 43.6c0-0.7-0.3-1.2-1.1-1.2h-3.7v5.2h0.8v-2h1.6l1.6 2.1 0.7-0.4-1.2-1.7c0.7 0 1.3-0.3 1.3-1v-1zm-0.8 1-0.4 0.4h-2.8v-1.9h2.9l0.3 0.5v1z"/>
  <path class="cls-5" d="m250 42.4h-2.5c-0.9 0-1.1 0.5-1.1 1.2v2.8c0 0.9 0.2 1.3 1.1 1.3h2.5c0.7 0 1.2-0.4 1.2-1.3v-2.8c0-0.7-0.5-1.2-1.2-1.2zm0.5 4.6h-3.4v-3.9h3.4v3.9z"/>
  <path class="cls-5" d="m257.5 46.6-1.7-4.2h-0.7l2.1 5.2h0.7l2-5.2h-0.7l-1.7 4.2z"/>
  <path class="cls-5" d="m264.4 45.2h2.6v-0.6h-2.6v-1.5h3v-0.7h-3.7v5.2h3.8v-0.6h-3.1v-1.8z"/>
  <path class="cls-4" d="m272.2 46.3c-0.4 0-0.7 0-0.7 0.5v0.3c0 0.5 0.3 0.5 0.7 0.5 0.3 0 0.4 0 0.4-0.5v-0.3c0-0.4-0.1-0.5-0.4-0.5z"/>
</svg>